<!DOCTYPE svg PUBLIC "-//W3C//DTD SVG 20010904//EN" "http://www.w3.org/TR/2001/REC-SVG-20010904/DTD/svg10.dtd">
<svg version="1.0" xmlns="http://www.w3.org/2000/svg" width="20px" height="21px" viewBox="0 0 200 210" preserveAspectRatio="xMidYMid meet">
<g id="layer101" fill="#525b62" stroke="none">
 <path d="M0 105 l0 -105 100 0 100 0 0 105 0 105 -100 0 -100 0 0 -105z"/>
 </g>
<g id="layer102" fill="#5d656b" stroke="none">
 <path d="M0 105 l0 -105 66 0 c50 0 70 4 82 18 10 9 14 13 9 8 -13 -18 -7 -26 18 -26 l26 0 -2 105 -1 105 -99 0 -99 0 0 -105z m70 41 c0 -2 -8 -10 -17 -17 -16 -13 -17 -12 -4 4 13 16 21 21 21 13z m75 -6 c3 -6 -1 -7 -9 -4 -18 7 -21 14 -7 14 6 0 13 -4 16 -10z m-78 -37 c-4 -3 -10 -3 -14 0 -3 4 0 7 7 7 7 0 10 -3 7 -7z m73 3 c0 -2 -7 -7 -16 -10 -8 -3 -12 -2 -9 4 6 10 25 14 25 6z m-103 -43 c-4 -3 -7 0 -7 7 0 7 3 10 7 7 3 -4 3 -10 0 -14z m50 10 c-4 -3 -10 -3 -14 0 -3 4 0 7 7 7 7 0 10 -3 7 -7z m83 -1 c0 -10 -36 -9 -46 1 -4 4 5 7 19 7 15 0 27 -4 27 -8z"/>
 </g>
<g id="layer103" fill="#6a7177" stroke="none">
 <path d="M6 188 c-3 -13 -6 -60 -6 -105 l0 -83 68 0 c63 0 69 2 84 28 10 15 18 22 18 15 0 -6 -4 -15 -10 -18 -18 -11 -10 -25 15 -25 25 0 25 1 25 89 0 49 -3 96 -6 105 -5 13 -23 16 -94 16 -82 0 -88 -1 -94 -22z m101 -35 c-4 -3 -10 -3 -14 0 -3 4 0 7 7 7 7 0 10 -3 7 -7z m-37 -7 c0 -2 -8 -10 -17 -17 -16 -13 -17 -12 -4 4 13 16 21 21 21 13z m81 -13 c13 -15 12 -15 -8 -4 -24 12 -29 21 -14 21 5 0 15 -7 22 -17z m-68 -30 c-7 -2 -19 -2 -25 0 -7 3 -2 5 12 5 14 0 19 -2 13 -5z m83 -18 c1 -14 -2 -22 -8 -19 -5 3 -16 0 -24 -7 -8 -6 -17 -9 -21 -5 -3 3 -1 6 7 6 10 0 10 3 0 15 -15 18 -5 35 23 35 16 0 22 -6 23 -25z m-129 -37 c-3 -7 -5 -2 -5 12 0 14 2 19 5 13 2 -7 2 -19 0 -25z m50 25 c-4 -3 -10 -3 -14 0 -3 4 0 7 7 7 7 0 10 -3 7 -7z m-22 -61 c-3 -3 -11 0 -18 7 -9 10 -8 11 6 5 10 -3 15 -9 12 -12z"/>
 <path d="M120 90 c0 -5 7 -10 15 -10 8 0 15 5 15 10 0 6 -7 10 -15 10 -8 0 -15 -4 -15 -10z"/>
 </g>
<g id="layer104" fill="#747d84" stroke="none">
 <path d="M6 188 c-3 -13 -6 -60 -6 -105 l0 -83 68 0 c63 0 70 2 82 25 7 14 15 23 17 21 3 -2 0 -14 -7 -25 -9 -19 -8 -21 15 -21 25 0 25 1 25 83 0 131 3 127 -100 127 -82 0 -88 -1 -94 -22z m29 -47 c-6 -5 -25 10 -25 20 0 5 6 4 14 -3 8 -7 12 -15 11 -17z m155 25 c0 -2 -8 -10 -17 -17 -16 -13 -17 -12 -4 4 13 16 21 21 21 13z m-105 -21 c-16 -9 -36 -23 -43 -32 -6 -9 -12 -13 -12 -7 1 14 23 40 40 47 32 12 43 6 15 -8z m66 -12 c13 -15 12 -15 -8 -4 -24 12 -29 21 -14 21 5 0 15 -7 22 -17z m-56 -42 c0 -8 -7 -16 -15 -18 -13 -4 -13 -3 0 6 12 8 10 12 -10 20 l-25 11 25 -3 c14 -1 25 -8 25 -16z m75 -7 c0 -15 -4 -23 -10 -19 -6 4 -18 1 -26 -6 -12 -9 -17 -10 -27 0 -9 10 -8 11 8 5 18 -7 18 -6 7 9 -18 21 -7 37 24 37 19 0 24 -5 24 -26z m-123 -19 c-9 -19 -13 -21 -15 -9 -3 13 12 33 25 34 0 0 -4 -11 -10 -25z m18 -53 c-3 -3 -11 0 -18 7 -9 10 -8 11 6 5 10 -3 15 -9 12 -12z"/>
 <path d="M120 90 c0 -5 7 -10 15 -10 8 0 15 5 15 10 0 6 -7 10 -15 10 -8 0 -15 -4 -15 -10z"/>
 </g>
<g id="layer105" fill="#7c848b" stroke="none">
 <path d="M6 188 c-3 -13 -6 -60 -6 -105 l0 -83 64 0 c58 0 67 3 85 26 22 29 28 25 11 -7 -9 -16 -7 -19 15 -19 25 0 25 1 25 83 0 131 3 127 -100 127 -82 0 -88 -1 -94 -22z m30 -45 c-7 -7 -26 7 -26 19 0 6 6 6 15 -2 9 -7 13 -15 11 -17z m148 12 c-4 -8 -13 -15 -20 -15 -11 0 -12 -4 -4 -19 13 -26 13 -64 0 -56 -6 4 -17 2 -24 -4 -18 -15 -67 6 -59 25 7 20 -7 17 -23 -3 -20 -27 -17 -53 8 -63 14 -5 17 -9 8 -9 -9 -1 -21 4 -28 11 -15 15 -16 72 -2 63 6 -3 10 1 10 9 0 26 39 19 50 -9 5 -14 15 -25 22 -25 9 0 9 3 0 12 -18 18 -14 38 8 38 25 0 25 9 3 26 -26 20 -47 17 -77 -11 -27 -25 -34 -22 -13 7 18 22 60 32 85 19 14 -8 24 -7 38 4 24 18 25 18 18 0z"/>
 <path d="M120 90 c0 -5 7 -10 15 -10 8 0 15 5 15 10 0 6 -7 10 -15 10 -8 0 -15 -4 -15 -10z"/>
 </g>
<g id="layer106" fill="#8b9298" stroke="none">
 <path d="M6 188 c-3 -13 -6 -60 -6 -106 l0 -83 63 2 c66 2 97 18 97 51 0 11 -4 17 -9 14 -16 -10 -41 5 -41 25 0 12 7 19 20 19 28 0 25 14 -6 30 -22 12 -29 12 -52 -2 -15 -9 -28 -25 -29 -35 -2 -10 0 -12 3 -5 10 21 44 13 54 -13 5 -14 14 -25 20 -25 6 0 8 -5 4 -11 -4 -8 -9 -8 -13 -1 -8 14 -57 32 -65 25 -14 -14 -4 -44 17 -53 15 -6 17 -9 6 -9 -29 -1 -42 26 -37 79 4 35 1 50 -9 54 -7 3 -13 13 -13 23 0 15 2 14 15 -4 13 -19 19 -21 46 -11 22 7 37 7 55 -1 20 -9 28 -7 46 11 17 17 20 18 15 4 -4 -10 -7 -20 -7 -22 0 -2 -7 -4 -16 -4 -14 0 -14 -3 -4 -15 9 -10 11 -33 7 -70 -5 -50 -4 -55 14 -55 17 0 19 8 19 83 0 131 3 127 -100 127 -82 0 -88 -1 -94 -22z"/>
 <path d="M60 90 c0 -5 5 -10 10 -10 6 0 10 5 10 10 0 6 -4 10 -10 10 -5 0 -10 -4 -10 -10z"/>
 <path d="M120 90 c0 -5 7 -10 15 -10 8 0 15 5 15 10 0 6 -7 10 -15 10 -8 0 -15 -4 -15 -10z"/>
 </g>
<g id="layer107" fill="#999fa4" stroke="none">
 <path d="M10 199 c0 -6 4 -18 10 -28 14 -26 146 -26 160 0 19 35 12 39 -80 39 -57 0 -90 -4 -90 -11z"/>
 <path d="M0 85 l0 -85 43 1 c35 0 38 2 19 9 -30 12 -43 50 -32 90 7 25 5 35 -11 51 -19 19 -19 18 -19 -66z"/>
 <path d="M178 150 c-12 -14 -14 -27 -9 -52 4 -18 4 -42 0 -53 -13 -33 -10 -45 11 -45 18 0 20 7 20 85 0 47 -1 85 -2 84 -2 0 -10 -9 -20 -19z"/>
 <path d="M60 125 c-13 -14 -20 -28 -17 -32 4 -3 7 -1 7 5 0 16 33 15 48 0 9 -9 12 -9 12 0 0 7 10 12 22 12 20 0 21 1 3 20 -24 27 -47 25 -75 -5z"/>
 <path d="M60 90 c0 -5 5 -10 10 -10 6 0 10 5 10 10 0 6 -4 10 -10 10 -5 0 -10 -4 -10 -10z"/>
 <path d="M120 90 c0 -5 7 -10 15 -10 8 0 15 5 15 10 0 6 -7 10 -15 10 -8 0 -15 -4 -15 -10z"/>
 <path d="M43 65 c-9 -25 5 -45 31 -45 14 0 28 -4 31 -10 3 -5 12 -10 18 -10 8 0 7 4 -2 9 -11 7 -9 10 10 13 16 2 25 10 27 27 2 14 0 21 -7 17 -6 -4 -21 -2 -33 4 -21 10 -22 10 -5 -3 12 -10 14 -17 8 -22 -6 -3 -11 -2 -11 3 0 6 -14 15 -30 21 -25 8 -32 7 -37 -4z"/>
 </g>
<g id="layer108" fill="#a9b0b6" stroke="none">
 <path d="M10 198 c1 -33 20 -43 90 -44 59 -1 72 1 80 17 19 35 12 39 -80 39 -65 0 -90 -3 -90 -12z"/>
 <path d="M0 85 l0 -85 37 0 c36 0 37 1 16 15 -26 18 -38 67 -23 94 8 17 7 24 -10 41 l-20 20 0 -85z"/>
 <path d="M178 150 c-13 -14 -14 -26 -8 -55 5 -22 5 -48 -1 -62 -12 -33 -12 -33 11 -33 18 0 20 7 20 85 0 47 -1 85 -2 84 -2 0 -10 -9 -20 -19z"/>
 <path d="M66 129 c-14 -11 -26 -26 -26 -32 0 -8 3 -8 9 1 4 7 19 12 32 11 13 -1 35 -1 49 0 l25 2 -24 19 c-29 25 -32 25 -65 -1z"/>
 <path d="M65 90 c3 -5 8 -10 11 -10 2 0 4 5 4 10 0 6 -5 10 -11 10 -5 0 -7 -4 -4 -10z"/>
 <path d="M120 90 c0 -5 7 -10 15 -10 8 0 15 5 15 10 0 6 -7 10 -15 10 -8 0 -15 -4 -15 -10z"/>
 <path d="M105 70 c3 -5 8 -10 11 -10 3 0 2 5 -1 10 -3 6 -8 10 -11 10 -3 0 -2 -4 1 -10z"/>
 <path d="M40 61 c0 -32 14 -41 61 -41 49 0 66 13 57 41 -3 8 -10 6 -21 -6 -17 -16 -19 -16 -36 -1 -19 17 -61 22 -61 7z"/>
 </g>
<g id="layer109" fill="#bbc2c8" stroke="none">
 <path d="M10 198 c1 -33 20 -43 90 -44 59 -1 72 1 80 17 19 35 12 39 -80 39 -65 0 -90 -3 -90 -12z"/>
 <path d="M0 85 l0 -85 38 1 c30 0 33 2 16 9 -26 10 -40 70 -24 100 8 16 6 24 -10 40 l-20 20 0 -85z"/>
 <path d="M178 150 c-13 -14 -14 -26 -8 -55 5 -22 5 -48 -1 -62 -12 -33 -12 -33 11 -33 18 0 20 7 20 85 0 47 -1 85 -2 84 -2 0 -10 -9 -20 -19z"/>
 <path d="M66 129 c-14 -11 -26 -26 -26 -32 0 -8 3 -7 9 1 4 8 19 13 32 12 13 -1 35 -2 49 -1 l25 2 -24 19 c-29 25 -32 25 -65 -1z"/>
 <path d="M65 90 c3 -5 8 -10 11 -10 2 0 4 5 4 10 0 6 -5 10 -11 10 -5 0 -7 -4 -4 -10z"/>
 <path d="M130 90 c0 -5 5 -10 10 -10 6 0 10 5 10 10 0 6 -4 10 -10 10 -5 0 -10 -4 -10 -10z"/>
 <path d="M105 70 c3 -5 8 -10 11 -10 3 0 2 5 -1 10 -3 6 -8 10 -11 10 -3 0 -2 -4 1 -10z"/>
 <path d="M40 56 c0 -24 27 -37 72 -34 31 2 44 8 46 21 4 20 -24 24 -31 5 -3 -10 -9 -8 -24 5 -23 20 -63 23 -63 3z"/>
 </g>
<g id="layer110" fill="#cad0d5" stroke="none">
 <path d="M10 206 c0 -3 4 -15 9 -29 9 -22 14 -23 82 -23 72 1 85 8 88 49 1 4 -39 7 -89 7 -50 0 -90 -2 -90 -4z"/>
 <path d="M179 147 c-13 -17 -14 -28 -7 -41 10 -17 7 -52 -7 -88 -6 -14 -2 -18 14 -18 20 0 21 5 21 85 0 47 -1 85 -2 85 -2 0 -10 -11 -19 -23z"/>
 <path d="M0 82 l0 -82 38 1 c31 0 34 2 15 9 -26 11 -42 74 -25 101 9 13 7 21 -9 35 -19 17 -19 16 -19 -64z"/>
 <path d="M69 131 l-23 -18 30 -5 c16 -2 40 -1 54 2 l24 6 -24 17 c-30 21 -33 21 -61 -2z"/>
 <path d="M65 90 c3 -5 8 -10 11 -10 2 0 4 5 4 10 0 6 -5 10 -11 10 -5 0 -7 -4 -4 -10z"/>
 <path d="M130 90 c0 -7 3 -10 7 -7 3 4 3 10 0 14 -4 3 -7 0 -7 -7z"/>
 <path d="M40 56 c0 -24 27 -37 72 -34 31 2 44 8 46 21 4 19 -24 24 -30 5 -3 -8 -11 -7 -28 5 -29 21 -60 22 -60 3z"/>
 </g>
<g id="layer111" fill="#d6dde3" stroke="none">
 <path d="M10 206 c0 -3 4 -15 9 -29 9 -22 14 -23 82 -23 72 1 85 8 88 49 1 4 -39 7 -89 7 -50 0 -90 -2 -90 -4z"/>
 <path d="M0 82 l0 -82 38 1 c31 0 34 2 15 9 -26 11 -42 74 -25 101 9 13 7 21 -9 35 -19 17 -19 16 -19 -64z"/>
 <path d="M177 142 c-12 -13 -13 -22 -5 -35 10 -19 7 -57 -7 -90 -5 -13 -2 -17 14 -17 20 0 21 5 21 80 0 44 -2 80 -3 80 -2 0 -11 -8 -20 -18z"/>
 <path d="M69 131 l-23 -18 30 -5 c16 -2 40 -1 54 2 l24 6 -24 17 c-30 21 -33 21 -61 -2z"/>
 <path d="M63 93 c4 -3 10 -3 14 0 3 4 0 7 -7 7 -7 0 -10 -3 -7 -7z"/>
 <path d="M130 90 c0 -7 3 -10 7 -7 3 4 3 10 0 14 -4 3 -7 0 -7 -7z"/>
 <path d="M40 57 c0 -23 23 -37 60 -37 34 0 60 14 60 32 0 13 -28 9 -32 -4 -3 -8 -11 -7 -28 5 -29 20 -60 22 -60 4z"/>
 </g>
<g id="layer112" fill="#dee5ea" stroke="none">
 <path d="M10 206 c0 -3 4 -15 9 -29 9 -22 14 -23 82 -23 72 1 85 8 88 49 1 4 -39 7 -89 7 -50 0 -90 -2 -90 -4z"/>
 <path d="M0 82 l0 -82 32 0 c30 0 31 1 12 14 -15 11 -19 27 -19 70 0 30 -6 61 -13 68 -9 9 -12 -5 -12 -70z"/>
 <path d="M177 142 c-12 -13 -13 -22 -5 -35 10 -19 7 -57 -7 -90 -5 -13 -2 -17 14 -17 20 0 21 5 21 80 0 44 -2 80 -3 80 -2 0 -11 -8 -20 -18z"/>
 <path d="M90 142 c-8 -2 -21 -10 -29 -16 -11 -9 -9 -12 15 -16 36 -7 76 -1 68 11 -9 15 -38 27 -54 21z"/>
 <path d="M63 93 c4 -3 10 -3 14 0 3 4 0 7 -7 7 -7 0 -10 -3 -7 -7z"/>
 <path d="M130 90 c0 -7 3 -10 7 -7 3 4 3 10 0 14 -4 3 -7 0 -7 -7z"/>
 <path d="M40 57 c0 -23 23 -37 61 -37 21 0 42 7 49 15 16 20 5 32 -14 16 -12 -10 -20 -10 -38 3 -27 19 -58 21 -58 3z"/>
 </g>
<g id="layer113" fill="#fafcfd" stroke="none">
 <path d="M20 193 c0 -32 14 -38 82 -39 65 0 68 1 77 28 l10 28 -85 0 c-73 0 -84 -2 -84 -17z"/>
 <path d="M0 81 l0 -81 30 0 30 0 -21 21 c-18 18 -21 29 -16 69 4 36 2 52 -9 60 -12 11 -14 1 -14 -69z"/>
 <path d="M176 141 c-12 -14 -14 -21 -6 -26 12 -8 9 -66 -4 -98 -6 -13 -3 -17 13 -17 20 0 21 5 21 80 0 44 -2 80 -3 80 -2 0 -12 -9 -21 -19z"/>
 <path d="M61 127 c-9 -12 -6 -15 19 -19 17 -3 33 -1 36 4 3 5 10 5 16 2 6 -4 9 -1 6 7 -6 19 -62 23 -77 6z"/>
 <path d="M47 64 c-3 -4 -2 -15 4 -25 12 -24 81 -26 99 -4 16 20 5 32 -14 16 -12 -10 -20 -10 -38 3 -24 17 -41 20 -51 10z"/>
 </g>

</svg>